<svg width="475" height="200" viewBox="0 0 475 200" fill="none" xmlns="http://www.w3.org/2000/svg">
<g clip-path="url(#clip0_5519_590)">
<path d="M137 38.4761V73.3121L94.3168 88.4361V53.0401L137 38.4761Z" fill="#2D86C7"/>
<path d="M137 38.4761V73.3121L94.3168 88.4361V53.0401L137 38.4761Z" fill="#2D86C7"/>
<path d="M134.173 35.212L92.368 49.48L2.9635 13.692L47.6276 0L134.173 35.212Z" fill="#2D86C7"/>
<path d="M134.173 35.212L92.368 49.48L2.9635 13.692L47.6276 0L134.173 35.212Z" fill="#2D86C7"/>
<path d="M90.3067 52.9639V88.2999L45.2737 69.2079V106.16L0 86.2159V16.7559L90.3067 52.9639Z" fill="#2D86C7"/>
<path d="M90.3067 52.9639V88.2999L45.2737 69.2079V106.16L0 86.2159V16.7559L90.3067 52.9639Z" fill="#2D86C7"/>
<path d="M42.6832 146.96L0 161.524V126.688L42.6832 111.564V146.96Z" fill="#2D86C7"/>
<path d="M42.6832 111.564V146.96L0 161.524V126.688L42.6832 111.564Z" fill="#2D86C7"/>
<path d="M89.3723 200L2.83105 164.788L44.632 150.52L134.036 186.308L89.3723 200Z" fill="#2D86C7"/>
<path d="M89.3723 200L2.83105 164.788L44.632 150.52L134.036 186.308L89.3723 200Z" fill="#2D86C7"/>
<path d="M137 183.244L46.6932 147.036V111.7L91.7263 130.792V93.8398L137 113.784V183.244Z" fill="#2D86C7"/>
<path d="M137 113.784V183.244L46.6932 147.036V111.7L91.7263 130.792V93.8398L137 113.784Z" fill="#2D86C7"/>
</g>
<path d="M198.375 79.4375H210.781C214.323 79.4375 216.896 78.7708 218.5 77.4375C220.125 76.1042 220.938 74.2188 220.938 71.7812V71.6875C220.938 70.0208 220.635 68.5938 220.031 67.4062C219.448 66.1979 218.521 65.2708 217.25 64.625C215.979 63.9792 214.344 63.6562 212.344 63.6562H198.375V58.6875H212.344C214.99 58.6875 216.979 58.0833 218.312 56.875C219.667 55.6667 220.344 53.875 220.344 51.5C220.344 49.0208 219.604 47.1667 218.125 45.9375C216.646 44.7083 214.427 44.0938 211.469 44.0938H198.375V39.0625H212.531C215.469 39.0625 217.927 39.5625 219.906 40.5625C221.885 41.5625 223.365 42.9792 224.344 44.8125C225.323 46.6458 225.812 48.8333 225.812 51.375C225.812 52.9167 225.51 54.375 224.906 55.75C224.302 57.1042 223.375 58.2708 222.125 59.25C220.896 60.2292 219.365 60.8854 217.531 61.2188C219.365 61.4896 220.948 62.1458 222.281 63.1875C223.615 64.2083 224.635 65.4896 225.344 67.0312C226.052 68.5729 226.406 70.2396 226.406 72.0312V72.125C226.406 74.5833 225.865 76.75 224.781 78.625C223.698 80.5 222.146 81.9479 220.125 82.9688C218.104 83.9896 215.75 84.5 213.062 84.5H198.375V79.4375ZM194.625 39.0625H200.062V84.5H194.625V39.0625ZM240.11 76.0312C240.11 77.1146 240.36 77.9583 240.86 78.5625C241.381 79.1458 242.1 79.4375 243.016 79.4375H246.016V84.5625H242.266C239.85 84.5625 237.975 83.8125 236.641 82.3125C235.329 80.8125 234.673 78.6979 234.673 75.9688V39.0625H240.11V76.0312ZM265.033 84.9688C262.22 84.9688 259.814 84.4167 257.814 83.3125C255.814 82.2083 254.283 80.6042 253.22 78.5C252.178 76.375 251.658 73.8229 251.658 70.8438V65.5625C251.658 62.625 252.178 60.1146 253.22 58.0312C254.283 55.9271 255.814 54.3333 257.814 53.25C259.814 52.1458 262.22 51.5938 265.033 51.5938C267.845 51.5938 270.251 52.1458 272.251 53.25C274.251 54.3333 275.772 55.9271 276.814 58.0312C277.876 60.1146 278.408 62.625 278.408 65.5625V70.9375C278.408 73.8958 277.876 76.4271 276.814 78.5312C275.772 80.6146 274.251 82.2083 272.251 83.3125C270.251 84.4167 267.845 84.9688 265.033 84.9688ZM265.033 79.8438C267.553 79.8438 269.501 79.0625 270.876 77.5C272.272 75.9375 272.97 73.75 272.97 70.9375V65.5625C272.97 62.75 272.272 60.5729 270.876 59.0312C269.501 57.4896 267.553 56.7188 265.033 56.7188C262.512 56.7188 260.553 57.4896 259.158 59.0312C257.783 60.5729 257.095 62.75 257.095 65.5625V70.9375C257.095 73.75 257.783 75.9375 259.158 77.5C260.553 79.0625 262.512 79.8438 265.033 79.8438ZM299.924 84.9688C296.882 84.9688 294.32 84.4375 292.236 83.375C290.153 82.2917 288.57 80.7083 287.486 78.625C286.424 76.5208 285.893 73.9375 285.893 70.875V65.5312C285.893 62.5104 286.424 59.9688 287.486 57.9062C288.57 55.8229 290.153 54.25 292.236 53.1875C294.32 52.125 296.882 51.5938 299.924 51.5938C301.653 51.5938 303.257 51.7917 304.736 52.1875C306.215 52.5833 307.538 53.1667 308.705 53.9375C309.872 54.6875 310.861 55.6354 311.674 56.7812L307.705 60.3125C306.705 59.125 305.549 58.2292 304.236 57.625C302.924 57.0208 301.518 56.7188 300.018 56.7188C297.184 56.7188 295.028 57.4688 293.549 58.9688C292.07 60.4479 291.33 62.6354 291.33 65.5312V70.875C291.33 73.8125 292.07 76.0417 293.549 77.5625C295.028 79.0833 297.184 79.8438 300.018 79.8438C301.58 79.8438 303.028 79.5417 304.361 78.9375C305.715 78.3125 306.903 77.4062 307.924 76.2188L311.674 79.875C310.84 80.9792 309.84 81.9167 308.674 82.6875C307.507 83.4375 306.184 84.0104 304.705 84.4062C303.247 84.7812 301.653 84.9688 299.924 84.9688ZM321.065 72.8125L338.596 52.0625H345.003L320.409 79.75L321.065 72.8125ZM318.065 39.0625H323.503V84.5H318.065V39.0625ZM329.409 66.3438L332.784 62.0938L346.596 84.5H340.409L329.409 66.3438ZM362.613 84.9688C360.779 84.9688 359.029 84.7917 357.363 84.4375C355.717 84.0625 354.165 83.5208 352.706 82.8125C351.269 82.1042 349.967 81.2396 348.8 80.2188L351.988 76.3125C353.758 77.5625 355.55 78.5208 357.363 79.1875C359.175 79.8542 360.925 80.1875 362.613 80.1875C365.425 80.1875 367.571 79.7292 369.05 78.8125C370.529 77.875 371.269 76.5312 371.269 74.7812C371.269 73.5521 370.894 72.6354 370.144 72.0312C369.394 71.4062 368.446 70.9896 367.3 70.7812C366.175 70.5729 364.592 70.3854 362.55 70.2188C362.363 70.2188 362.165 70.2188 361.956 70.2188C361.748 70.1979 361.55 70.1771 361.363 70.1562C361.279 70.1562 361.196 70.1562 361.113 70.1562C361.029 70.1354 360.946 70.125 360.863 70.125C358.738 69.9375 356.946 69.625 355.488 69.1875C354.05 68.75 352.842 67.9375 351.863 66.75C350.904 65.5625 350.425 63.8542 350.425 61.625C350.425 59.4375 350.915 57.6042 351.894 56.125C352.873 54.625 354.31 53.5 356.206 52.75C358.102 51.9792 360.435 51.5938 363.206 51.5938C364.748 51.5938 366.258 51.7396 367.738 52.0312C369.217 52.3229 370.623 52.7604 371.956 53.3438C373.31 53.9062 374.581 54.6146 375.769 55.4688L372.55 59.3438C370.967 58.3646 369.363 57.625 367.738 57.125C366.133 56.625 364.592 56.375 363.113 56.375C360.654 56.375 358.779 56.8125 357.488 57.6875C356.196 58.5625 355.55 59.8333 355.55 61.5C355.55 62.5833 355.904 63.3958 356.613 63.9375C357.342 64.4792 358.248 64.8438 359.331 65.0312C360.415 65.1979 361.935 65.3333 363.894 65.4375C363.998 65.4583 364.102 65.4688 364.206 65.4688C364.331 65.4688 364.446 65.4792 364.55 65.5C364.613 65.5 364.675 65.5 364.738 65.5C364.8 65.5 364.863 65.5104 364.925 65.5312C367.196 65.6562 369.123 65.9479 370.706 66.4062C372.31 66.8438 373.654 67.7292 374.738 69.0625C375.821 70.375 376.363 72.2812 376.363 74.7812C376.363 77.0104 375.842 78.875 374.8 80.375C373.758 81.875 372.217 83.0208 370.175 83.8125C368.133 84.5833 365.613 84.9688 362.613 84.9688Z" fill="#3C3939"/>
<path d="M212.238 165.027C208.535 165.027 205.266 164.254 202.43 162.707C199.617 161.137 197.438 158.934 195.891 156.098C194.344 153.238 193.57 149.934 193.57 146.184V131.699C193.57 127.949 194.344 124.656 195.891 121.82C197.438 118.961 199.617 116.758 202.43 115.211C205.266 113.641 208.535 112.855 212.238 112.855C215.941 112.855 219.199 113.641 222.012 115.211C224.848 116.758 227.039 118.961 228.586 121.82C230.133 124.656 230.906 127.949 230.906 131.699V146.184C230.906 149.934 230.133 153.238 228.586 156.098C227.039 158.934 224.848 161.137 222.012 162.707C219.199 164.254 215.941 165.027 212.238 165.027ZM212.238 155.395C213.973 155.395 215.496 155.031 216.809 154.305C218.121 153.555 219.129 152.5 219.832 151.141C220.559 149.781 220.922 148.211 220.922 146.43V131.453C220.922 129.672 220.559 128.102 219.832 126.742C219.129 125.383 218.121 124.34 216.809 123.613C215.496 122.863 213.973 122.488 212.238 122.488C210.504 122.488 208.98 122.863 207.668 123.613C206.355 124.34 205.336 125.383 204.609 126.742C203.906 128.102 203.555 129.672 203.555 131.453V146.43C203.555 148.211 203.906 149.781 204.609 151.141C205.336 152.5 206.355 153.555 207.668 154.305C208.98 155.031 210.504 155.395 212.238 155.395ZM256.448 165.027C254.01 165.027 251.62 164.781 249.276 164.289C246.956 163.797 244.764 163.082 242.702 162.145C240.663 161.184 238.835 160.035 237.217 158.699L241.682 150.754C243.651 152.371 245.925 153.625 248.503 154.516C251.081 155.383 253.729 155.816 256.448 155.816C259.589 155.816 262.026 155.289 263.76 154.234C265.495 153.156 266.362 151.645 266.362 149.699V149.664C266.362 148.305 265.975 147.227 265.202 146.43C264.428 145.633 263.421 145.047 262.178 144.672C260.936 144.297 259.342 143.957 257.397 143.652C257.327 143.629 257.257 143.617 257.186 143.617C257.139 143.617 257.081 143.605 257.01 143.582L256.237 143.477C252.815 142.938 249.979 142.27 247.729 141.473C245.479 140.652 243.569 139.234 241.999 137.219C240.428 135.18 239.643 132.297 239.643 128.57V128.535C239.643 125.23 240.382 122.406 241.858 120.062C243.335 117.719 245.479 115.938 248.292 114.719C251.104 113.477 254.503 112.855 258.487 112.855C260.315 112.855 262.178 113.066 264.077 113.488C265.999 113.91 267.874 114.52 269.702 115.316C271.53 116.113 273.264 117.074 274.905 118.199L270.827 126.355C268.858 124.996 266.796 123.941 264.639 123.191C262.507 122.441 260.456 122.066 258.487 122.066C255.534 122.066 253.249 122.559 251.632 123.543C250.014 124.504 249.206 125.863 249.206 127.621V127.656C249.206 129.133 249.628 130.305 250.471 131.172C251.315 132.016 252.358 132.637 253.6 133.035C254.842 133.434 256.589 133.855 258.839 134.301C258.932 134.324 259.026 134.348 259.12 134.371C259.214 134.371 259.307 134.383 259.401 134.406C259.542 134.43 259.671 134.465 259.788 134.512C259.928 134.535 260.069 134.559 260.21 134.582C263.444 135.215 266.139 135.988 268.296 136.902C270.475 137.793 272.292 139.246 273.745 141.262C275.198 143.254 275.925 145.984 275.925 149.453V149.523C275.925 152.781 275.163 155.57 273.639 157.891C272.116 160.211 269.889 161.98 266.96 163.199C264.053 164.418 260.55 165.027 256.448 165.027Z" fill="#3C3939"/>
<defs>
<clipPath id="clip0_5519_590">
<rect width="137" height="200" fill="white"/>
</clipPath>
</defs>
</svg>
